<mxGraphModel dx="2154" dy="1714" grid="1" gridSize="10" guides="1" tooltips="1" connect="1" arrows="1" fold="1" page="0" pageScale="1" pageWidth="827" pageHeight="1169" math="0" shadow="0"><root><mxCell id="0"/><mxCell id="1" parent="0"/><mxCell id="154" value="" style="whiteSpace=wrap;html=1;strokeColor=none;" parent="1" vertex="1"><mxGeometry x="-880" y="-780" width="1090" height="820" as="geometry"/></mxCell><mxCell id="214" value="" style="rounded=0;whiteSpace=wrap;html=1;strokeColor=#6c8ebf;strokeWidth=1;fillColor=#dae8fc;" parent="1" vertex="1"><mxGeometry x="-330" y="-550" width="450" height="270" as="geometry"/></mxCell><mxCell id="218" value="对象实例数据&lt;br&gt;" style="text;html=1;strokeColor=none;fillColor=none;align=center;verticalAlign=middle;whiteSpace=wrap;rounded=0;" parent="1" vertex="1"><mxGeometry y="-650" width="90" height="20" as="geometry"/></mxCell><mxCell id="219" value="" style="rounded=0;whiteSpace=wrap;html=1;strokeColor=#82b366;strokeWidth=1;fillColor=#d5e8d4;" parent="1" vertex="1"><mxGeometry x="-330" y="-260" width="450" height="230" as="geometry"/></mxCell><mxCell id="221" value="Customer的Klass类元信息" style="ellipse;whiteSpace=wrap;html=1;strokeColor=#666666;strokeWidth=1;fillColor=#f5f5f5;fontColor=#333333;" parent="1" vertex="1"><mxGeometry x="-300" y="-190" width="180" height="120" as="geometry"/></mxCell><mxCell id="225" value="" style="rounded=0;whiteSpace=wrap;html=1;fillColor=#f8cecc;strokeColor=#b85450;" vertex="1" parent="1"><mxGeometry x="-660" y="-570" width="160" height="390" as="geometry"/></mxCell><mxCell id="226" value="&lt;font color=&quot;#ff0000&quot; style=&quot;font-size: 15px&quot;&gt;主程序的虚拟机栈&lt;/font&gt;" style="text;html=1;strokeColor=none;fillColor=none;align=center;verticalAlign=middle;whiteSpace=wrap;rounded=0;" vertex="1" parent="1"><mxGeometry x="-642.5" y="-600" width="125" height="20" as="geometry"/></mxCell><mxCell id="227" value="" style="rounded=0;whiteSpace=wrap;html=1;fillColor=#fff2cc;strokeColor=#d6b656;" vertex="1" parent="1"><mxGeometry x="-640" y="-540" width="120" height="270" as="geometry"/></mxCell><mxCell id="228" value="。。。" style="text;html=1;strokeColor=none;fillColor=none;align=center;verticalAlign=middle;whiteSpace=wrap;rounded=0;" vertex="1" parent="1"><mxGeometry x="-600" y="-240" width="40" height="20" as="geometry"/></mxCell><mxCell id="238" style="edgeStyle=none;html=1;exitX=1;exitY=0.5;exitDx=0;exitDy=0;entryX=0;entryY=0.333;entryDx=0;entryDy=0;entryPerimeter=0;dashed=1;" edge="1" parent="1" source="229" target="235"><mxGeometry relative="1" as="geometry"/></mxCell><mxCell id="229" value="局部变量表" style="rounded=0;whiteSpace=wrap;html=1;fillColor=#d5e8d4;strokeColor=#82b366;" vertex="1" parent="1"><mxGeometry x="-623.75" y="-525" width="87.5" height="30" as="geometry"/></mxCell><mxCell id="230" value="操作数栈" style="rounded=0;whiteSpace=wrap;html=1;fillColor=#dae8fc;strokeColor=#6c8ebf;" vertex="1" parent="1"><mxGeometry x="-623.75" y="-480" width="87.5" height="30" as="geometry"/></mxCell><mxCell id="231" value="动态链接" style="rounded=0;whiteSpace=wrap;html=1;fillColor=#e1d5e7;strokeColor=#9673a6;" vertex="1" parent="1"><mxGeometry x="-623.75" y="-430" width="87.5" height="30" as="geometry"/></mxCell><mxCell id="232" value="方法返回地址" style="rounded=0;whiteSpace=wrap;html=1;fillColor=#f5f5f5;strokeColor=#666666;fontColor=#333333;" vertex="1" parent="1"><mxGeometry x="-623.75" y="-375" width="87.5" height="30" as="geometry"/></mxCell><mxCell id="233" value="附加信息" style="rounded=0;whiteSpace=wrap;html=1;fillColor=#d80073;strokeColor=#A50040;fontColor=#ffffff;" vertex="1" parent="1"><mxGeometry x="-623.75" y="-320" width="87.5" height="30" as="geometry"/></mxCell><mxCell id="234" value="main()的栈帧" style="text;html=1;strokeColor=none;fillColor=none;align=center;verticalAlign=middle;whiteSpace=wrap;rounded=0;" vertex="1" parent="1"><mxGeometry x="-620" y="-560" width="80" height="20" as="geometry"/></mxCell><mxCell id="235" value="" style="rounded=0;whiteSpace=wrap;html=1;" vertex="1" parent="1"><mxGeometry x="-470" y="-540" width="100" height="90" as="geometry"/></mxCell><mxCell id="236" value="args" style="rounded=0;whiteSpace=wrap;html=1;fillColor=#d5e8d4;strokeColor=#82b366;" vertex="1" parent="1"><mxGeometry x="-463.75" y="-530" width="87.5" height="30" as="geometry"/></mxCell><mxCell id="237" value="cust" style="rounded=0;whiteSpace=wrap;html=1;fillColor=#d5e8d4;strokeColor=#82b366;" vertex="1" parent="1"><mxGeometry x="-463.75" y="-490" width="87.5" height="30" as="geometry"/></mxCell><mxCell id="239" value="&lt;font color=&quot;#ff0000&quot;&gt;&lt;span style=&quot;font-size: 15px&quot;&gt;局部变量表&lt;/span&gt;&lt;/font&gt;" style="text;html=1;strokeColor=none;fillColor=none;align=center;verticalAlign=middle;whiteSpace=wrap;rounded=0;" vertex="1" parent="1"><mxGeometry x="-482" y="-565" width="125" height="20" as="geometry"/></mxCell><mxCell id="240" value="Account的Klass类元信息" style="ellipse;whiteSpace=wrap;html=1;strokeColor=#666666;strokeWidth=1;fillColor=#f5f5f5;fontColor=#333333;" vertex="1" parent="1"><mxGeometry x="-90" y="-190" width="180" height="120" as="geometry"/></mxCell><mxCell id="242" value="&lt;font color=&quot;#ff0000&quot;&gt;&lt;span style=&quot;font-size: 15px&quot;&gt;方法区&lt;/span&gt;&lt;/font&gt;" style="text;html=1;strokeColor=none;fillColor=none;align=center;verticalAlign=middle;whiteSpace=wrap;rounded=0;" vertex="1" parent="1"><mxGeometry x="-430" y="-155" width="125" height="20" as="geometry"/></mxCell><mxCell id="243" value="" style="rounded=0;whiteSpace=wrap;html=1;" vertex="1" parent="1"><mxGeometry x="-305" y="-502.5" width="135" height="92.5" as="geometry"/></mxCell><mxCell id="244" value="运行时元数据" style="rounded=0;whiteSpace=wrap;html=1;fillColor=#e1d5e7;strokeColor=#9673a6;" vertex="1" parent="1"><mxGeometry x="-292.5" y="-495" width="110" height="35" as="geometry"/></mxCell><mxCell id="245" value="类型指针" style="rounded=0;whiteSpace=wrap;html=1;fillColor=#fff2cc;strokeColor=#d6b656;" vertex="1" parent="1"><mxGeometry x="-292.5" y="-452.5" width="110" height="35" as="geometry"/></mxCell><mxCell id="246" value="" style="rounded=0;whiteSpace=wrap;html=1;fillColor=#f8cecc;strokeColor=#b85450;" vertex="1" parent="1"><mxGeometry x="-305" y="-410" width="135" height="92.5" as="geometry"/></mxCell></root></mxGraphModel>